<mxfile host="app.diagrams.net" modified="2021-04-27T16:16:11.724Z" agent="5.0 (X11; Linux x86_64) AppleWebKit/537.36 (KHTML, like Gecko) Chrome/88.0.4324.150 Safari/537.36" etag="ioODuXdqYh1uA2FVls4u" version="14.6.6" type="github">
  <diagram id="ES-HaVBYeuBXV5QrSLtq" name="Page-1">
    <mxGraphModel dx="838" dy="611" grid="1" gridSize="10" guides="1" tooltips="1" connect="1" arrows="1" fold="1" page="1" pageScale="1" pageWidth="100" pageHeight="112" math="0" shadow="0">
      <root>
        <mxCell id="0" />
        <mxCell id="1" parent="0" />
        <mxCell id="ow9gGme_L00yQlCZZfW1-1" value="Input data" style="rounded=1;whiteSpace=wrap;html=1;fillColor=#f5f5f5;opacity=90;fontSize=7;strokeColor=#666666;fontColor=#333333;fontStyle=1" vertex="1" parent="1">
          <mxGeometry x="630" y="250" width="50" height="20" as="geometry" />
        </mxCell>
        <mxCell id="ow9gGme_L00yQlCZZfW1-2" value="Processing step" style="rounded=1;whiteSpace=wrap;html=1;fillColor=#dae8fc;opacity=90;fontSize=7;strokeColor=#6c8ebf;fontStyle=1" vertex="1" parent="1">
          <mxGeometry x="630" y="280" width="50" height="20" as="geometry" />
        </mxCell>
        <mxCell id="ow9gGme_L00yQlCZZfW1-3" value="Output file" style="rounded=1;whiteSpace=wrap;html=1;fillColor=#f8cecc;opacity=90;fontSize=7;strokeColor=#b85450;fontStyle=1" vertex="1" parent="1">
          <mxGeometry x="630" y="311.25" width="50" height="20" as="geometry" />
        </mxCell>
        <mxCell id="ow9gGme_L00yQlCZZfW1-4" value="" style="rounded=1;whiteSpace=wrap;html=1;opacity=90;strokeColor=#666666;fontColor=#333333;fillColor=none;" vertex="1" parent="1">
          <mxGeometry x="240" y="62" width="370" height="60" as="geometry" />
        </mxCell>
        <mxCell id="ow9gGme_L00yQlCZZfW1-5" style="edgeStyle=orthogonalEdgeStyle;rounded=0;jumpStyle=gap;orthogonalLoop=1;jettySize=auto;html=1;entryX=0.5;entryY=0;entryDx=0;entryDy=0;endArrow=classic;endFill=1;endSize=4;opacity=90;" edge="1" parent="1" source="ow9gGme_L00yQlCZZfW1-6" target="ow9gGme_L00yQlCZZfW1-4">
          <mxGeometry x="240" y="5" as="geometry">
            <Array as="points">
              <mxPoint x="425" y="55" />
              <mxPoint x="425" y="55" />
            </Array>
          </mxGeometry>
        </mxCell>
        <mxCell id="ow9gGme_L00yQlCZZfW1-6" value="Air temperature observations" style="rounded=1;whiteSpace=wrap;html=1;fontSize=11;fontFamily=Helvetica;fontStyle=1;fillColor=#dae8fc;strokeColor=#6c8ebf;opacity=90;" vertex="1" parent="1">
          <mxGeometry x="370" y="5" width="110" height="40" as="geometry" />
        </mxCell>
        <mxCell id="ow9gGme_L00yQlCZZfW1-7" value="Monthly Normals&lt;br&gt;(1981-2010)" style="rounded=1;whiteSpace=wrap;html=1;fontSize=11;fontFamily=Helvetica;fontStyle=1;fillColor=#dae8fc;strokeColor=#6c8ebf;opacity=90;" vertex="1" parent="1">
          <mxGeometry x="250" y="130.25" width="110" height="40" as="geometry" />
        </mxCell>
        <mxCell id="ow9gGme_L00yQlCZZfW1-8" style="edgeStyle=orthogonalEdgeStyle;rounded=0;jumpStyle=gap;orthogonalLoop=1;jettySize=auto;html=1;entryX=1;entryY=0.5;entryDx=0;entryDy=0;endArrow=classic;endFill=1;endSize=4;opacity=90;" edge="1" parent="1" source="ow9gGme_L00yQlCZZfW1-4" target="ow9gGme_L00yQlCZZfW1-7">
          <mxGeometry x="240" y="5" as="geometry" />
        </mxCell>
        <mxCell id="ow9gGme_L00yQlCZZfW1-9" value="&lt;span style=&quot;color: rgb(0 , 0 , 0) ; font-family: &amp;#34;helvetica&amp;#34; ; font-size: 11px ; font-style: normal ; font-weight: 700 ; letter-spacing: normal ; text-align: center ; text-indent: 0px ; text-transform: none ; word-spacing: 0px ; display: inline ; float: none&quot;&gt;Spatial grids of&lt;/span&gt;&lt;br style=&quot;color: rgb(0 , 0 , 0) ; font-family: &amp;#34;helvetica&amp;#34; ; font-size: 11px ; font-style: normal ; font-weight: 700 ; letter-spacing: normal ; text-align: center ; text-indent: 0px ; text-transform: none ; word-spacing: 0px&quot;&gt;&lt;span style=&quot;color: rgb(0 , 0 , 0) ; font-family: &amp;#34;helvetica&amp;#34; ; font-size: 11px ; font-style: normal ; font-weight: 700 ; letter-spacing: normal ; text-align: center ; text-indent: 0px ; text-transform: none ; word-spacing: 0px ; display: inline ; float: none&quot;&gt;air temperature&lt;/span&gt;&lt;br style=&quot;color: rgb(0 , 0 , 0) ; font-family: &amp;#34;helvetica&amp;#34; ; font-size: 11px ; font-style: normal ; font-weight: 700 ; letter-spacing: normal ; text-align: center ; text-indent: 0px ; text-transform: none ; word-spacing: 0px&quot;&gt;&lt;span style=&quot;color: rgb(0 , 0 , 0) ; font-family: &amp;#34;helvetica&amp;#34; ; font-size: 11px ; font-style: normal ; font-weight: 700 ; letter-spacing: normal ; text-align: center ; text-indent: 0px ; text-transform: none ; word-spacing: 0px ; display: inline ; float: none&quot;&gt;&amp;nbsp;predictors&lt;/span&gt;" style="rounded=1;whiteSpace=wrap;html=1;fontSize=11;fontFamily=Helvetica;fontStyle=1;fillColor=#dae8fc;strokeColor=#6c8ebf;opacity=90;" vertex="1" parent="1">
          <mxGeometry x="380" y="181.25" width="90" height="50" as="geometry" />
        </mxCell>
        <mxCell id="ow9gGme_L00yQlCZZfW1-10" value="GWRK Interpolation" style="rounded=1;whiteSpace=wrap;html=1;fontSize=11;fontFamily=Helvetica;fontStyle=1;opacity=90;fillColor=#f5f5f5;strokeColor=#666666;fontColor=#333333;" vertex="1" parent="1">
          <mxGeometry x="260" y="191.25" width="90" height="30" as="geometry" />
        </mxCell>
        <mxCell id="ow9gGme_L00yQlCZZfW1-11" style="edgeStyle=orthogonalEdgeStyle;rounded=0;jumpStyle=gap;orthogonalLoop=1;jettySize=auto;html=1;entryX=0.5;entryY=0;entryDx=0;entryDy=0;endSize=4;opacity=90;" edge="1" parent="1" source="ow9gGme_L00yQlCZZfW1-7" target="ow9gGme_L00yQlCZZfW1-10">
          <mxGeometry x="240" y="5" as="geometry" />
        </mxCell>
        <mxCell id="ow9gGme_L00yQlCZZfW1-12" style="edgeStyle=orthogonalEdgeStyle;rounded=0;jumpStyle=gap;orthogonalLoop=1;jettySize=auto;html=1;entryX=1;entryY=0.5;entryDx=0;entryDy=0;endSize=4;opacity=90;" edge="1" parent="1" source="ow9gGme_L00yQlCZZfW1-9" target="ow9gGme_L00yQlCZZfW1-10">
          <mxGeometry x="240" y="5" as="geometry" />
        </mxCell>
        <mxCell id="ow9gGme_L00yQlCZZfW1-13" style="edgeStyle=orthogonalEdgeStyle;rounded=0;jumpStyle=gap;orthogonalLoop=1;jettySize=auto;html=1;endArrow=classic;endFill=1;endSize=4;fontSize=7;opacity=90;" edge="1" parent="1" source="ow9gGme_L00yQlCZZfW1-14" target="ow9gGme_L00yQlCZZfW1-29">
          <mxGeometry relative="1" as="geometry" />
        </mxCell>
        <mxCell id="ow9gGme_L00yQlCZZfW1-14" value="RK &lt;br&gt;Interpolation" style="rounded=1;whiteSpace=wrap;html=1;fontSize=11;fontFamily=Helvetica;fontStyle=1;opacity=90;fillColor=#f5f5f5;strokeColor=#666666;fontColor=#333333;" vertex="1" parent="1">
          <mxGeometry x="500" y="192" width="90" height="30" as="geometry" />
        </mxCell>
        <mxCell id="ow9gGme_L00yQlCZZfW1-15" style="edgeStyle=orthogonalEdgeStyle;rounded=0;jumpStyle=gap;orthogonalLoop=1;jettySize=auto;html=1;entryX=0;entryY=0.475;entryDx=0;entryDy=0;entryPerimeter=0;endSize=4;opacity=90;" edge="1" parent="1" source="ow9gGme_L00yQlCZZfW1-9" target="ow9gGme_L00yQlCZZfW1-14">
          <mxGeometry x="240" y="5" as="geometry" />
        </mxCell>
        <mxCell id="ow9gGme_L00yQlCZZfW1-16" value="Spatial grids of&lt;br&gt;Monthly Normal" style="rounded=1;whiteSpace=wrap;html=1;fontSize=11;fontFamily=Helvetica;fontStyle=1;opacity=90;fillColor=#f8cecc;strokeColor=#b85450;" vertex="1" parent="1">
          <mxGeometry x="250" y="241.75" width="110" height="40" as="geometry" />
        </mxCell>
        <mxCell id="ow9gGme_L00yQlCZZfW1-17" style="edgeStyle=orthogonalEdgeStyle;rounded=0;jumpStyle=gap;orthogonalLoop=1;jettySize=auto;html=1;entryX=0.5;entryY=0;entryDx=0;entryDy=0;endArrow=classic;endFill=1;endSize=4;opacity=90;" edge="1" parent="1" source="ow9gGme_L00yQlCZZfW1-10" target="ow9gGme_L00yQlCZZfW1-16">
          <mxGeometry x="240" y="5" as="geometry" />
        </mxCell>
        <mxCell id="ow9gGme_L00yQlCZZfW1-18" value="Spatio-temporal&lt;br&gt;grids of daily&amp;nbsp;&lt;br&gt;temperature" style="rounded=1;whiteSpace=wrap;html=1;fontSize=11;fontFamily=Helvetica;fontStyle=1;opacity=90;fillColor=#f8cecc;strokeColor=#b85450;" vertex="1" parent="1">
          <mxGeometry x="370" y="291.25" width="110" height="40" as="geometry" />
        </mxCell>
        <mxCell id="ow9gGme_L00yQlCZZfW1-19" style="edgeStyle=orthogonalEdgeStyle;rounded=0;jumpStyle=gap;orthogonalLoop=1;jettySize=auto;html=1;entryX=0.5;entryY=0;entryDx=0;entryDy=0;endSize=4;opacity=90;" edge="1" parent="1" source="ow9gGme_L00yQlCZZfW1-16" target="ow9gGme_L00yQlCZZfW1-18">
          <mxGeometry x="240" y="5" as="geometry" />
        </mxCell>
        <mxCell id="ow9gGme_L00yQlCZZfW1-20" value="Homogenization" style="rounded=1;whiteSpace=wrap;html=1;fontSize=11;fontFamily=Helvetica;fontStyle=1;fillColor=#f5f5f5;strokeColor=#666666;fontColor=#333333;opacity=90;" vertex="1" parent="1">
          <mxGeometry x="500" y="77" width="90" height="30" as="geometry" />
        </mxCell>
        <mxCell id="ow9gGme_L00yQlCZZfW1-21" style="edgeStyle=orthogonalEdgeStyle;rounded=0;orthogonalLoop=1;jettySize=auto;html=1;entryX=0;entryY=0.5;entryDx=0;entryDy=0;opacity=90;endSize=4;" edge="1" parent="1" source="ow9gGme_L00yQlCZZfW1-22" target="ow9gGme_L00yQlCZZfW1-20">
          <mxGeometry x="260" y="77" as="geometry" />
        </mxCell>
        <mxCell id="ow9gGme_L00yQlCZZfW1-22" value="Gap-filling" style="rounded=1;whiteSpace=wrap;html=1;fontSize=11;fontFamily=Helvetica;fontStyle=1;fillColor=#f5f5f5;strokeColor=#666666;fontColor=#333333;opacity=90;" vertex="1" parent="1">
          <mxGeometry x="380" y="77" width="90" height="30" as="geometry" />
        </mxCell>
        <mxCell id="ow9gGme_L00yQlCZZfW1-23" style="edgeStyle=orthogonalEdgeStyle;rounded=0;orthogonalLoop=1;jettySize=auto;html=1;entryX=0;entryY=0.5;entryDx=0;entryDy=0;opacity=90;endSize=4;" edge="1" parent="1" source="ow9gGme_L00yQlCZZfW1-24" target="ow9gGme_L00yQlCZZfW1-22">
          <mxGeometry x="260" y="77" as="geometry" />
        </mxCell>
        <mxCell id="ow9gGme_L00yQlCZZfW1-24" value="Quality Control" style="rounded=1;whiteSpace=wrap;html=1;fontSize=11;fontFamily=Helvetica;fontStyle=1;fillColor=#f5f5f5;strokeColor=#666666;fontColor=#333333;opacity=90;" vertex="1" parent="1">
          <mxGeometry x="260" y="77" width="90" height="30" as="geometry" />
        </mxCell>
        <mxCell id="ow9gGme_L00yQlCZZfW1-25" style="edgeStyle=orthogonalEdgeStyle;rounded=0;jumpStyle=gap;orthogonalLoop=1;jettySize=auto;html=1;entryX=0.5;entryY=0;entryDx=0;entryDy=0;endArrow=classic;endFill=1;endSize=4;opacity=90;" edge="1" parent="1" source="ow9gGme_L00yQlCZZfW1-26" target="ow9gGme_L00yQlCZZfW1-14">
          <mxGeometry x="240" y="5" as="geometry" />
        </mxCell>
        <mxCell id="ow9gGme_L00yQlCZZfW1-26" value="Daily observations&lt;br&gt;(1981-2010)" style="rounded=1;whiteSpace=wrap;html=1;fontSize=11;fontFamily=Helvetica;fontStyle=1;fillColor=#dae8fc;strokeColor=#6c8ebf;opacity=90;" vertex="1" parent="1">
          <mxGeometry x="490" y="130.25" width="110" height="40" as="geometry" />
        </mxCell>
        <mxCell id="ow9gGme_L00yQlCZZfW1-27" style="edgeStyle=orthogonalEdgeStyle;rounded=0;jumpStyle=gap;orthogonalLoop=1;jettySize=auto;html=1;entryX=0;entryY=0.5;entryDx=0;entryDy=0;endArrow=classic;endFill=1;endSize=4;opacity=90;" edge="1" parent="1" source="ow9gGme_L00yQlCZZfW1-4" target="ow9gGme_L00yQlCZZfW1-26">
          <mxGeometry x="240" y="5" as="geometry" />
        </mxCell>
        <mxCell id="ow9gGme_L00yQlCZZfW1-28" style="edgeStyle=orthogonalEdgeStyle;rounded=0;sketch=0;jumpStyle=gap;orthogonalLoop=1;jettySize=auto;html=1;entryX=0.5;entryY=0;entryDx=0;entryDy=0;endArrow=classic;endFill=1;endSize=4;targetPerimeterSpacing=0;fontSize=7;opacity=90;" edge="1" parent="1" source="ow9gGme_L00yQlCZZfW1-29" target="ow9gGme_L00yQlCZZfW1-18">
          <mxGeometry relative="1" as="geometry" />
        </mxCell>
        <mxCell id="ow9gGme_L00yQlCZZfW1-29" value="Spatial grids of&lt;br&gt;Daily Anonamlies" style="rounded=1;whiteSpace=wrap;html=1;fontSize=11;fontFamily=Helvetica;fontStyle=1;opacity=90;fillColor=#dae8fc;strokeColor=#6c8ebf;" vertex="1" parent="1">
          <mxGeometry x="490" y="241.75" width="110" height="40" as="geometry" />
        </mxCell>
      </root>
    </mxGraphModel>
  </diagram>
</mxfile>
